<svg xmlns="http://www.w3.org/2000/svg" viewBox="0 0 226.8 226.8">
<path d="M113.4,59.6c-29.6,0-53.8,24.1-53.8,53.8c0,29.6,24.1,53.8,53.8,53.8c29.6,0,53.8-24.1,53.8-53.8S143,59.6,113.4,59.6z
	 M113.4,160.9c-26.2,0-47.6-21.3-47.6-47.6c0-26.2,21.3-47.6,47.6-47.6c26.2,0,47.6,21.3,47.6,47.6
	C160.9,139.6,139.6,160.9,113.4,160.9z"/>
<path d="M113.4,0C50.8,0,0,50.8,0,113.4s50.8,113.4,113.4,113.4S226.8,176,226.8,113.4S176,0,113.4,0z M113.4,185.3
	c-39.7,0-71.9-32.2-71.9-71.9s32.2-71.9,71.9-71.9s71.9,32.2,71.9,71.9S153.1,185.3,113.4,185.3z"/>
<g>
	<path d="M94.6,126.4v-7.6h-13v-2.5l12.5-17.8h4.1v17.4h3.9v3h-3.9v7.6H94.6z M94.6,115.8v-9.3c0-1.5,0-2.9,0.1-4.4h-0.1
		c-0.9,1.6-1.5,2.8-2.3,4.1l-6.8,9.5v0.1H94.6z"/>
	<path d="M123.6,112.1c0,9.5-3.5,14.7-9.7,14.7c-5.5,0-9.2-5.1-9.2-14.4c0-9.4,4-14.5,9.7-14.5C120.2,98,123.6,103.2,123.6,112.1z
		 M108.4,112.6c0,7.3,2.2,11.4,5.7,11.4c3.9,0,5.7-4.5,5.7-11.7c0-6.9-1.8-11.4-5.7-11.4C110.8,100.9,108.4,104.9,108.4,112.6z"/>
	<path d="M138.7,126.4v-7.6h-13v-2.5l12.5-17.8h4.1v17.4h3.9v3h-3.9v7.6H138.7z M138.7,115.8v-9.3c0-1.5,0-2.9,0.1-4.4h-0.1
		c-0.9,1.6-1.5,2.8-2.3,4.1l-6.8,9.5v0.1H138.7z"/>
</g>
</svg>
