<?xml version="1.0" standalone="no"?>
<!DOCTYPE svg PUBLIC "-//W3C//DTD SVG 20010904//EN"
 "http://www.w3.org/TR/2001/REC-SVG-20010904/DTD/svg10.dtd">
<svg version="1.0" xmlns="http://www.w3.org/2000/svg"
 width="1024.000000pt" height="1024.000000pt" viewBox="0 0 1024.000000 1024.000000"
 preserveAspectRatio="xMidYMid meet">
<metadata>
Created by potrace 1.11, written by Peter Selinger 2001-2013
</metadata>
<g transform="translate(0.000000,1024.000000) scale(0.100000,-0.100000)"
fill="#000000" stroke="none">
<path d="M0 5882 l0 -2743 42 6 c47 6 587 53 978 85 679 55 2304 164 3485 235
1163 69 1414 89 2010 161 877 105 1576 218 3402 550 l323 59 0 673 c0 633 -1
672 -17 672 -138 2 -685 22 -803 30 -1912 129 -4205 716 -6500 1663 -830 342
-1590 691 -2547 1167 l-373 185 0 -2743z"/>
</g>
</svg>
